<svg width="500" height="500" viewBox="0 0 500 500" fill="none" xmlns="http://www.w3.org/2000/svg">
<g clip-path="url(#clip0_523_467)">
<rect width="500" height="500" rx="40" fill="white"/>
<rect width="500" height="500" fill="white"/>
<path d="M250 401C230.17 401 210.535 397.094 192.215 389.506C173.895 381.917 157.248 370.795 143.227 356.773C129.205 342.751 118.083 326.105 110.494 307.785C102.906 289.465 98.9999 269.83 98.9999 250C98.9999 230.17 102.906 210.535 110.494 192.215C118.083 173.895 129.205 157.249 143.227 143.227C157.248 129.205 173.895 118.083 192.215 110.494C210.535 102.906 230.17 99 250 99L250 174.975C240.085 174.975 230.267 176.453 221.107 180.247C211.947 184.041 203.624 189.603 196.613 196.613C189.603 203.624 184.041 211.947 180.247 221.107C176.453 230.267 174.5 240.085 174.5 250C174.5 259.915 176.453 269.733 180.247 278.893C184.041 288.053 189.603 296.376 196.613 303.387C203.624 310.397 211.947 315.959 221.107 319.753C230.267 323.547 240.085 325.5 250 325.5L250 401Z" fill="#0C4E8C"/>
<rect x="247.151" y="174.975" width="75.9748" height="153.849" transform="rotate(-90 247.151 174.975)" fill="#0C81E4"/>
<rect x="325.025" y="174.975" width="75.9749" height="151.95" fill="#4FE7AF"/>
</g>
<defs>
<clipPath id="clip0_523_467">
<rect width="500" height="500" rx="40" fill="white"/>
</clipPath>
</defs>
</svg>
